PathFileType	4	(X/Y/Z)	C:/Users/beibeiliu/ov580/test_trc\sequence.15_training_dense_left.trc
DataRate	CameraRate	NumFrames	NumMarkers	Units	OrigDataRate	OrigDataStartFrame	OrigNumFrames
120	120	16	19	mm	120	103	153
Frame#	Time	ThumbCMC			ThumbMCP			ThumbIP			ThumbTip			IndexMCP			IndexPIP			IndexTip			MiddleMCP			MiddlePIP			MiddleTip			RingMCP			RingPIP			RingTip			PinkyMCP			PinkyPIP			PinkyTip			BackHand1			BackHand2			BackHand3	
		X0	Y0	Z0	X1	Y1	Z1	X2	Y2	Z2	X3	Y3	Z3	X4	Y4	Z4	X5	Y5	Z5	X6	Y6	Z6	X7	Y7	Z7	X8	Y8	Z8	X9	Y9	Z9	X10	Y10	Z10	X11	Y11	Z11	X12	Y12	Z12	X13	Y13	Z13	X14	Y14	Z14	X15	Y15	Z15	X16	Y16	Z16	X17	Y17	Z17	X18	Y18	Z18	
102	0.85	-135.915	17.1859	147.631	-104.546	6.51987	140.98	-88.0175	-7.55443	122.092	-90.1799	-30.4925	108.433	-122.539	10.057	79.0601	-100.752	6.8823	64.4428	-70.8431	-5.65426	55.9558	-130.832	-12.0422	72.828	-108.799	-17.6436	49.0908	-85.9727	-23.5252	35.092	-129.758	-30.3964	76.9915	-103.281	-37.4619	60.3859	-75.3771	-38.0112	58.5177	-130.51	-48.6828	91.5692	-104.448	-46.6817	82.5303	-76.3012	-42.1324	101.119	-166.266	-27.802	116.527	-178.556	-26.7096	140.773	-168.078	6.93078	124.89	
103	0.858333	-157.962	29.0746	137.317	-122.914	29.0224	124.805	-105.297	16.7822	108.973	-103.014	-9.54143	98.7634	-147.47	19.4762	65.2164	-125.903	20.6497	49.9538	-99.857	16.1662	42.8168	-149.283	-8.28756	61.5948	-132.006	-3.71331	39.3458	-106.289	-6.06192	22.8942	-141.901	-26.6442	70.9727	-118.222	-23.2911	51.2307	-89.6046	-19.3261	45.7519	-137.683	-37.1122	86.9868	-111.214	-28.8896	73.6675	-86.5447	-16.5276	89.5761	-173.746	-28.2124	111.967	-186.177	-24.0901	137.184	-186.209	3.04619	119.373	
104	0.866667	-180.047	24.1706	131.299	-150.117	33.7517	116.178	-128.93	28.1616	96.023	-122.731	-0.263012	86.2532	-176.313	11.8093	59.8409	-156.125	17.5999	39.9081	-130.301	23.2694	29.1031	-172.51	-11.3653	56.6957	-155.864	-8.61208	31.0076	-136.407	-2.97574	14.3154	-161.277	-24.996	64.0992	-141.549	-20.9982	43.1322	-113.375	-8.54557	33.3688	-151.095	-36.0891	78.6635	-129.195	-22.5746	63.505	-107.725	-0.825925	74.3752	-184.268	-32.2106	109.9	-194.8	-31.3117	136.37	-203.054	-5.55381	118.262	
105	0.875	-207.766	15.6407	128.908	-181.447	27.8128	105.077	-161.909	24.5332	83.3507	-150.512	-4.00214	74.8186	-208.767	-4.90927	56.7767	-190.288	1.07823	33.5568	-166.789	9.49292	18.8908	-198.121	-28.4872	56.1941	-187.765	-24.944	29.0519	-166.946	-14.4082	5.01041	-183.161	-39.1424	60.0059	-170.196	-33.1188	39.3409	-147.957	-13.74	24.1268	-170.374	-43.6122	80.0989	-154.475	-30.6735	57.0508	-135.885	-4.86343	60.435	-200.306	-45.5012	111.623	-207.018	-45.0776	143.983	-224.632	-17.1611	122.14	
106	0.883333	-235.115	-4.42114	123.366	-214.801	11.8518	98.7541	-199.715	5.25199	74.4444	-185.598	-11.5721	67.1883	-243.293	-32.9375	59.39	-230.251	-30.7095	35.68	-212.711	-16.9109	12.3277	-231.028	-52.9825	59.5566	-222.557	-54.0842	32.1308	-208.41	-43.0446	4.20676	-209.959	-59.6442	67.7372	-200.238	-53.9345	35.9864	-183.938	-33.3423	16.9957	-189.895	-61.3133	77.7787	-180.873	-48.761	53.0311	-175.658	-19.4061	49.8699	-219.918	-59.2091	116.823	-221.513	-56.3192	147.725	-242.1	-41.9344	123.55	
107	0.891667	-257.239	-9.04538	124.387	-239.635	5.88769	95.1129	-225.55	-4.25254	68.7744	-208.273	-27.7654	62.2919	-267.7	-51.2122	62.1615	-260.77	-49.0135	36.5046	-245.847	-38.9795	14.5969	-252.773	-72.0961	63.384	-248.379	-73.186	36.9731	-235.279	-65.6322	6.55614	-232.485	-73.1168	70.6606	-223.316	-72.1091	41.3957	-212.776	-54.2967	19.1303	-214.008	-71.4833	75.7713	-202.806	-61.5294	51.7316	-198.919	-27.5754	46.7627	-232.858	-68.8421	119.237	-232.777	-60.8152	151.895	-262.37	-48.2504	131.525	
108	0.9	-264.293	-10.1273	126.88	-250.696	-0.117489	91.4422	-239.637	-6.60149	69.2813	-223.973	-28.9034	58.6078	-282.981	-53.1226	70.0688	-276.402	-54.2813	41.42	-262.073	-46.2009	17.2956	-265.941	-74.3615	67.3149	-264.362	-77.0014	38.2707	-254.391	-71.6152	12.5437	-244.595	-76.669	71.303	-237.795	-77.9664	43.5276	-233.23	-58.308	18.4431	-227.063	-74.8276	79.075	-221.798	-65.6574	53.3641	-218.198	-34.7246	46.0308	-241.978	-69.7558	122.444	-240.17	-59.1016	152.857	-271.877	-50.2794	134.234	
109	0.908333	-269.39	-4.65713	126.703	-255.609	3.86802	93.5948	-246.427	-0.925539	67.1932	-232.081	-20.7304	57.8888	-290.049	-48.1558	70.3679	-285.243	-49.9457	41.8332	-274.423	-40.4323	14.8232	-276.647	-68.8286	67.7655	-273.146	-72.6421	37.3527	-265.649	-65.4471	9.18342	-253.487	-73.8345	68.3749	-248.313	-73.8016	42.6077	-241.582	-53.8064	17.8099	-234.179	-71.141	77.8599	-228.608	-60.5252	49.899	-227.064	-32.8062	44.1482	-251.187	-64.0414	122.015	-247.451	-56.1531	150.204	-274.793	-43.8586	132.256	
110	0.916667	-271.191	-2.25257	123.886	-259.022	12.6256	92.0388	-248.289	4.08827	67.9453	-234.664	-19.0786	56.7099	-291.563	-43.9657	68.2812	-290.523	-44.0496	43.5871	-280.531	-36.5626	18.4709	-279.026	-61.9959	71.1223	-279.557	-68.6606	38.3603	-269.121	-62.9216	11.7149	-259.149	-68.2037	69.0983	-254.731	-66.2683	38.4184	-245.969	-51.8273	17.6117	-238.083	-68.4258	75.124	-236.747	-54.5498	49.3041	-227.678	-24.8985	45.7418	-252.284	-59.6655	123.197	-250.419	-52.8769	151.473	-278.967	-39.3236	135.253	
111	0.925	-267.703	9.22499	127.376	-253.618	20.2489	90.4451	-243.459	10.8376	67.0143	-232.268	-11.9063	60.0916	-291.68	-32.5816	68.8823	-287.152	-33.4942	39.3528	-278.85	-26.7201	17.1286	-280.826	-53.7174	67.5773	-278.853	-60.4357	37.63	-270.312	-51.863	5.56466	-260.881	-58.9798	68.6002	-255.991	-59.5925	39.5277	-244.668	-44.4628	15.0892	-239.807	-59.3207	75.1096	-234.173	-48.3928	49.4445	-226.774	-19.8167	48.4715	-252.058	-53.2462	121.539	-248.437	-46.97	150.166	-278.828	-30.2457	133.987	
112	0.933333	-256.361	18.32	126.994	-239.08	30.3101	98.4614	-230.529	23.0084	71.2912	-220.336	0.769967	58.3249	-283.233	-15.7757	67.1508	-279.566	-17.1799	39.7443	-264.933	-9.02886	14.1512	-275.897	-38.7819	65.9719	-272	-45.0214	38.1117	-260.933	-38.3001	5.95312	-252.454	-48.2672	67.2183	-247.638	-49.428	38.4935	-235.739	-33.8235	15.4299	-231.35	-51.7411	77.6625	-224.242	-42.3365	48.8492	-211.716	-8.08771	48.0989	-250.596	-42.6549	115.628	-246.239	-37.2011	148.209	-268.763	-19.9152	133.26	
113	0.941667	-235.025	35.403	130.298	-213.994	40.8746	98.4433	-206.005	30.5314	74.3395	-200.352	5.90121	61.0304	-265.181	11.08	65.738	-260.973	13.0686	35.3261	-243.689	14.5061	10.8305	-259.652	-17.1655	66.0584	-262.536	-17.4791	36.3134	-249.874	-15.3538	7.05439	-245.135	-29.8298	64.2636	-239.028	-30.9024	37.427	-222.931	-18.1701	15.3867	-227.551	-37.3572	72.8215	-218.353	-29.6619	50.4148	-197.103	-3.047	49.5685	-242.249	-28.0965	118.301	-241.212	-24.1848	144.786	-259.299	-0.40369	129.438	
114	0.95	-202.984	40.166	129.741	-180.391	37.5374	104.58	-174.75	24.7627	77.1346	-181.711	-0.771341	63.6816	-234.076	33.1299	66.0547	-227.601	33.2346	34.9387	-212.828	30.4512	11.7978	-242.616	5.60032	58.6489	-241.674	8.6722	34.0558	-226.873	4.22869	0.989175	-235.092	-10.5169	61.7279	-227.815	-12.0317	36.6786	-205.692	-10.6344	11.6265	-222.548	-27.1667	74.8938	-206.466	-23.2717	47.7212	-176.734	-9.70764	49.6965	-237.123	-9.63411	113.9	-235.475	-14.7081	145.174	-238.503	19.5952	131.105	
115	0.958333	-171.579	23.6078	137.544	-151.631	12.1658	105.422	-152.402	0.617219	79.316	-167.452	-15.8807	69.4756	-194.037	40.0954	67.4893	-184.058	38.1889	39.4247	-175.429	27.7833	18.2268	-211.378	23.7679	62.0295	-208.903	20.6451	30.0876	-200.178	18.6017	6.54137	-218.146	0.133948	60.1174	-210.901	-2.16028	37.3734	-193.392	-7.77755	13.3842	-215.142	-17.4847	76.2131	-200.988	-18.7821	49.3882	-169.644	-27.1409	48.9017	-222.43	-2.32856	117.025	-225.261	-5.4077	140.921	-212.36	24.6984	131.897	
116	0.966667	-145.446	-0.880865	140.565	-129.417	-18.6614	117.159	-131.537	-28.7055	85.5793	-153.693	-34.9068	73.2403	-149.5	24.9622	74.3726	-137.59	19.4372	45.664	-129.203	8.04827	26.8674	-176.963	17.6802	64.4885	-171.813	15.1285	33.6428	-160.921	9.52798	10.982	-188.196	2.17874	67.5695	-181.585	-3.66164	35.2428	-167.147	-16.6942	16.351	-199.146	-15.1376	73.1334	-186.158	-26.8701	50.573	-157.868	-43.1185	52.8374	-200.537	0.651899	115.539	-204.323	0.895159	143.77	-174.693	20.4575	134.151	
117	0.975	-125.524	-20.5276	153.708	-112.138	-43.8524	125.689	-113.524	-54.8357	102.232	-138.286	-54.9876	85.7406	-115.839	-2.63571	83.236	-104.783	-11.8494	59.6217	-94.0214	-30.4935	40.0262	-142.328	-0.697763	72.2387	-131.153	-4.67383	43.2154	-124.586	-19.6876	17.7087	-160.842	-12.0762	72.1739	-150.97	-21.0098	43.1153	-141.4	-41.0423	25.025	-173.206	-25.163	78.1976	-165.324	-41.8527	56.9453	-145.092	-67.4632	62.9983	-172.729	-2.22075	119.273	-185.039	-1.70173	145.914	-148.882	8.716	141.462	
